<svg xmlns="http://www.w3.org/2000/svg" xmlns:xlink="http://www.w3.org/1999/xlink" version="1.1" x="0px" y="0px" viewBox="0 0 66 82.5" enable-background="new 0 0 66 66" xml:space="preserve"><g><g><path d="M45.5,55.3h-25c-0.2,0.2-1,0.7-1,1.8v2.5c0,1.1,0.9,2,2,2h22.9c1.1,0,2-0.9,2-2v-2.5C46.5,55.9,45.7,55.5,45.5,55.3z"/></g><g><path d="M62,4.4H4c-1.7,0-3,1.4-3,3v42.9c0,1.6,1.3,3,3,3h58c1.7,0,3-1.4,3-3V7.4C65,5.8,63.7,4.4,62,4.4z M12.1,48.5H10v-2h2.1    V48.5z M18.4,48.5h-2.1v-2h2.1V48.5z M35.6,48.5h-5.2v-2h5.2V48.5z M63,41.7H3V7.4c0-0.5,0.4-1,1-1h58c0.5,0,1,0.5,1,1V41.7z"/></g><g><path d="M44.5,11.8l-3.7-0.6c-0.6-0.1-1.1,0.3-1.2,0.8c-0.1,0.5,0.3,1.1,0.8,1.2l1.1,0.2L24.2,23.9L16.8,19    c-0.3-0.2-0.8-0.2-1.1,0l-9,5.7c-0.5,0.3-0.6,0.9-0.3,1.4c0.3,0.5,0.9,0.6,1.4,0.3l8.4-5.4l7.4,4.8c0.3,0.2,0.7,0.2,1.1,0    l18.2-11.2l-0.3,1.5c-0.1,0.5,0.3,1.1,0.8,1.2c0.5,0.1,1.1-0.3,1.2-0.8l0.7-3.7C45.4,12.4,45,11.9,44.5,11.8z"/></g><g><path d="M40.6,21.4c-0.6,0-1,0.4-1,1v14.3c0,0.6,0.4,1,1,1c0.6,0,1-0.4,1-1V22.4C41.6,21.8,41.1,21.4,40.6,21.4z"/></g><g><path d="M34.2,24.3c-0.6,0-1,0.4-1,1v11.4c0,0.6,0.4,1,1,1c0.6,0,1-0.4,1-1V25.3C35.2,24.8,34.7,24.3,34.2,24.3z"/></g><g><path d="M27.7,28.2c-0.6,0-1,0.4-1,1v7.5c0,0.6,0.4,1,1,1c0.6,0,1-0.4,1-1v-7.5C28.7,28.7,28.3,28.2,27.7,28.2z"/></g><g><path d="M21.3,28.2c-0.6,0-1,0.4-1,1v7.5c0,0.6,0.4,1,1,1c0.6,0,1-0.4,1-1v-7.5C22.3,28.7,21.9,28.2,21.3,28.2z"/></g><g><path d="M14.9,26.3c-0.6,0-1,0.4-1,1v9.4c0,0.6,0.4,1,1,1c0.6,0,1-0.4,1-1v-9.4C15.9,26.7,15.5,26.3,14.9,26.3z"/></g><g><path d="M57.6,11.1h-7c-0.6,0-1,0.4-1,1c0,0.6,0.4,1,1,1h7c0.6,0,1-0.4,1-1C58.6,11.5,58.2,11.1,57.6,11.1z"/></g><g><path d="M57.6,17.2h-7c-0.6,0-1,0.4-1,1c0,0.6,0.4,1,1,1h7c0.6,0,1-0.4,1-1C58.6,17.7,58.2,17.2,57.6,17.2z"/></g><g><path d="M57.6,23.4h-7c-0.6,0-1,0.4-1,1c0,0.6,0.4,1,1,1h7c0.6,0,1-0.4,1-1C58.6,23.9,58.2,23.4,57.6,23.4z"/></g><g><path d="M57.6,35.7h-7c-0.6,0-1,0.4-1,1s0.4,1,1,1h7c0.6,0,1-0.4,1-1S58.2,35.7,57.6,35.7z"/></g><g><path d="M57.6,29.6h-7c-0.6,0-1,0.4-1,1c0,0.6,0.4,1,1,1h7c0.6,0,1-0.4,1-1C58.6,30,58.2,29.6,57.6,29.6z"/></g></g><text x="0" y="81" fill="#000000" font-size="5px" font-weight="bold" font-family="'Helvetica Neue', Helvetica, Arial-Unicode, Arial, Sans-serif">Created by ProSymbols</text><text x="0" y="86" fill="#000000" font-size="5px" font-weight="bold" font-family="'Helvetica Neue', Helvetica, Arial-Unicode, Arial, Sans-serif">from the Noun Project</text></svg>